<mxfile host="app.diagrams.net" modified="2022-05-24T12:49:05.530Z" agent="5.0 (Windows NT 10.0; Win64; x64) AppleWebKit/537.36 (KHTML, like Gecko) Chrome/101.0.4951.54 Safari/537.36" etag="txgaiaH-aYPA6q01Upni" version="18.0.2" type="github" pages="4">
  <diagram id="6N9T-yWHCPcd8hhdpVB5" name="Page-1">
    <mxGraphModel dx="1422" dy="754" grid="1" gridSize="10" guides="1" tooltips="1" connect="1" arrows="1" fold="1" page="1" pageScale="1" pageWidth="827" pageHeight="1169" math="0" shadow="0">
      <root>
        <mxCell id="0" />
        <mxCell id="1" parent="0" />
        <mxCell id="Y3i7rvEUcRQ7wOliKe1w-16" value="" style="rounded=0;whiteSpace=wrap;html=1;fillColor=#f5f5f5;fontColor=#333333;strokeColor=#666666;" parent="1" vertex="1">
          <mxGeometry x="530" y="40" width="420" height="310" as="geometry" />
        </mxCell>
        <mxCell id="Y3i7rvEUcRQ7wOliKe1w-1" value="Commit" style="rounded=0;whiteSpace=wrap;html=1;fillColor=#d5e8d4;strokeColor=#82b366;" parent="1" vertex="1">
          <mxGeometry x="180" y="130" width="120" height="60" as="geometry" />
        </mxCell>
        <mxCell id="Y3i7rvEUcRQ7wOliKe1w-2" value="" style="shape=umlActor;verticalLabelPosition=bottom;verticalAlign=top;html=1;outlineConnect=0;fillColor=#f5f5f5;strokeColor=#666666;fontColor=#333333;" parent="1" vertex="1">
          <mxGeometry x="80" y="130" width="30" height="60" as="geometry" />
        </mxCell>
        <mxCell id="Y3i7rvEUcRQ7wOliKe1w-4" value="" style="endArrow=classic;html=1;rounded=0;entryX=0;entryY=0.5;entryDx=0;entryDy=0;" parent="1" source="Y3i7rvEUcRQ7wOliKe1w-2" target="Y3i7rvEUcRQ7wOliKe1w-1" edge="1">
          <mxGeometry width="50" height="50" relative="1" as="geometry">
            <mxPoint x="130" y="250" as="sourcePoint" />
            <mxPoint x="180" y="200" as="targetPoint" />
          </mxGeometry>
        </mxCell>
        <mxCell id="Y3i7rvEUcRQ7wOliKe1w-5" value="" style="endArrow=classic;html=1;rounded=0;exitX=1;exitY=0.5;exitDx=0;exitDy=0;entryX=0;entryY=0.5;entryDx=0;entryDy=0;startArrow=none;" parent="1" source="Y3i7rvEUcRQ7wOliKe1w-20" target="Y3i7rvEUcRQ7wOliKe1w-7" edge="1">
          <mxGeometry width="50" height="50" relative="1" as="geometry">
            <mxPoint x="420" y="260" as="sourcePoint" />
            <mxPoint x="470" y="210" as="targetPoint" />
          </mxGeometry>
        </mxCell>
        <mxCell id="Y3i7rvEUcRQ7wOliKe1w-7" value="Setup job" style="rounded=1;whiteSpace=wrap;html=1;fillColor=#dae8fc;strokeColor=#6c8ebf;" parent="1" vertex="1">
          <mxGeometry x="550" y="130" width="120" height="60" as="geometry" />
        </mxCell>
        <mxCell id="Y3i7rvEUcRQ7wOliKe1w-8" value="Dextool" style="rounded=1;whiteSpace=wrap;html=1;fillColor=#dae8fc;strokeColor=#6c8ebf;" parent="1" vertex="1">
          <mxGeometry x="760" y="90" width="120" height="60" as="geometry" />
        </mxCell>
        <mxCell id="Y3i7rvEUcRQ7wOliKe1w-9" value="Mull" style="rounded=1;whiteSpace=wrap;html=1;fillColor=#dae8fc;strokeColor=#6c8ebf;" parent="1" vertex="1">
          <mxGeometry x="760" y="170" width="120" height="60" as="geometry" />
        </mxCell>
        <mxCell id="Y3i7rvEUcRQ7wOliKe1w-10" value="Artifactory" style="rounded=1;whiteSpace=wrap;html=1;fillColor=#dae8fc;strokeColor=#6c8ebf;" parent="1" vertex="1">
          <mxGeometry x="760" y="270" width="120" height="60" as="geometry" />
        </mxCell>
        <mxCell id="Y3i7rvEUcRQ7wOliKe1w-11" value="" style="endArrow=classic;html=1;rounded=0;exitX=1;exitY=0.5;exitDx=0;exitDy=0;entryX=0;entryY=0.5;entryDx=0;entryDy=0;" parent="1" source="Y3i7rvEUcRQ7wOliKe1w-7" target="Y3i7rvEUcRQ7wOliKe1w-8" edge="1">
          <mxGeometry width="50" height="50" relative="1" as="geometry">
            <mxPoint x="540" y="330" as="sourcePoint" />
            <mxPoint x="550" y="310" as="targetPoint" />
            <Array as="points">
              <mxPoint x="720" y="160" />
              <mxPoint x="720" y="120" />
            </Array>
          </mxGeometry>
        </mxCell>
        <mxCell id="Y3i7rvEUcRQ7wOliKe1w-12" value="" style="endArrow=classic;html=1;rounded=0;exitX=1;exitY=0.5;exitDx=0;exitDy=0;entryX=0;entryY=0.5;entryDx=0;entryDy=0;" parent="1" source="Y3i7rvEUcRQ7wOliKe1w-7" target="Y3i7rvEUcRQ7wOliKe1w-9" edge="1">
          <mxGeometry width="50" height="50" relative="1" as="geometry">
            <mxPoint x="500" y="350" as="sourcePoint" />
            <mxPoint x="550" y="300" as="targetPoint" />
            <Array as="points">
              <mxPoint x="720" y="160" />
              <mxPoint x="720" y="200" />
            </Array>
          </mxGeometry>
        </mxCell>
        <mxCell id="Y3i7rvEUcRQ7wOliKe1w-13" value="" style="endArrow=classic;html=1;rounded=0;exitX=1;exitY=0.5;exitDx=0;exitDy=0;entryX=1;entryY=0.5;entryDx=0;entryDy=0;" parent="1" source="Y3i7rvEUcRQ7wOliKe1w-8" target="Y3i7rvEUcRQ7wOliKe1w-10" edge="1">
          <mxGeometry width="50" height="50" relative="1" as="geometry">
            <mxPoint x="870" y="590" as="sourcePoint" />
            <mxPoint x="920" y="540" as="targetPoint" />
            <Array as="points">
              <mxPoint x="920" y="120" />
              <mxPoint x="920" y="300" />
            </Array>
          </mxGeometry>
        </mxCell>
        <mxCell id="Y3i7rvEUcRQ7wOliKe1w-14" value="" style="endArrow=classic;html=1;rounded=0;exitX=1;exitY=0.5;exitDx=0;exitDy=0;entryX=1;entryY=0.5;entryDx=0;entryDy=0;" parent="1" source="Y3i7rvEUcRQ7wOliKe1w-9" target="Y3i7rvEUcRQ7wOliKe1w-10" edge="1">
          <mxGeometry width="50" height="50" relative="1" as="geometry">
            <mxPoint x="740" y="490" as="sourcePoint" />
            <mxPoint x="790" y="440" as="targetPoint" />
            <Array as="points">
              <mxPoint x="920" y="200" />
              <mxPoint x="920" y="300" />
            </Array>
          </mxGeometry>
        </mxCell>
        <mxCell id="Y3i7rvEUcRQ7wOliKe1w-15" value="" style="endArrow=classic;html=1;rounded=0;exitX=0;exitY=0.5;exitDx=0;exitDy=0;" parent="1" source="Y3i7rvEUcRQ7wOliKe1w-10" target="Y3i7rvEUcRQ7wOliKe1w-2" edge="1">
          <mxGeometry width="50" height="50" relative="1" as="geometry">
            <mxPoint x="260" y="330" as="sourcePoint" />
            <mxPoint x="310" y="280" as="targetPoint" />
            <Array as="points">
              <mxPoint x="90" y="300" />
            </Array>
          </mxGeometry>
        </mxCell>
        <mxCell id="Y3i7rvEUcRQ7wOliKe1w-17" value="GitHub Actions workflow" style="text;html=1;strokeColor=none;fillColor=none;align=center;verticalAlign=middle;whiteSpace=wrap;rounded=0;" parent="1" vertex="1">
          <mxGeometry x="650" y="60" width="150" height="20" as="geometry" />
        </mxCell>
        <mxCell id="Y3i7rvEUcRQ7wOliKe1w-19" value="Developer" style="text;html=1;strokeColor=none;fillColor=none;align=center;verticalAlign=middle;whiteSpace=wrap;rounded=0;" parent="1" vertex="1">
          <mxGeometry x="65" y="105" width="60" height="30" as="geometry" />
        </mxCell>
        <mxCell id="Y3i7rvEUcRQ7wOliKe1w-20" value="Scheduled trigger" style="rounded=0;whiteSpace=wrap;html=1;fillColor=#d5e8d4;strokeColor=#82b366;" parent="1" vertex="1">
          <mxGeometry x="354" y="130" width="120" height="60" as="geometry" />
        </mxCell>
        <mxCell id="Y3i7rvEUcRQ7wOliKe1w-21" value="" style="endArrow=none;html=1;rounded=0;exitX=1;exitY=0.5;exitDx=0;exitDy=0;entryX=0;entryY=0.5;entryDx=0;entryDy=0;" parent="1" source="Y3i7rvEUcRQ7wOliKe1w-1" target="Y3i7rvEUcRQ7wOliKe1w-20" edge="1">
          <mxGeometry width="50" height="50" relative="1" as="geometry">
            <mxPoint x="300" y="160" as="sourcePoint" />
            <mxPoint x="610" y="160" as="targetPoint" />
          </mxGeometry>
        </mxCell>
      </root>
    </mxGraphModel>
  </diagram>
  <diagram name="Copy of Page-1" id="WRY74EXwW6EhzEST1Pry">
    <mxGraphModel dx="1185" dy="628" grid="1" gridSize="10" guides="1" tooltips="1" connect="1" arrows="1" fold="1" page="1" pageScale="1" pageWidth="827" pageHeight="1169" math="0" shadow="0">
      <root>
        <mxCell id="rUF9ovd1yhA2_wvXzmOl-0" />
        <mxCell id="rUF9ovd1yhA2_wvXzmOl-1" parent="rUF9ovd1yhA2_wvXzmOl-0" />
        <mxCell id="rUF9ovd1yhA2_wvXzmOl-2" value="" style="rounded=0;whiteSpace=wrap;html=1;fillColor=#f5f5f5;fontColor=#333333;strokeColor=#666666;" parent="rUF9ovd1yhA2_wvXzmOl-1" vertex="1">
          <mxGeometry x="320" y="80" width="570" height="210" as="geometry" />
        </mxCell>
        <mxCell id="rUF9ovd1yhA2_wvXzmOl-3" value="Trigger" style="rounded=0;whiteSpace=wrap;html=1;fillColor=#d5e8d4;strokeColor=#82b366;" parent="rUF9ovd1yhA2_wvXzmOl-1" vertex="1">
          <mxGeometry x="180" y="130" width="120" height="60" as="geometry" />
        </mxCell>
        <mxCell id="rUF9ovd1yhA2_wvXzmOl-4" value="" style="shape=umlActor;verticalLabelPosition=bottom;verticalAlign=top;html=1;outlineConnect=0;fillColor=#f5f5f5;strokeColor=#666666;fontColor=#333333;" parent="rUF9ovd1yhA2_wvXzmOl-1" vertex="1">
          <mxGeometry x="80" y="130" width="30" height="60" as="geometry" />
        </mxCell>
        <mxCell id="rUF9ovd1yhA2_wvXzmOl-5" value="" style="endArrow=classic;html=1;rounded=0;entryX=0;entryY=0.5;entryDx=0;entryDy=0;" parent="rUF9ovd1yhA2_wvXzmOl-1" source="rUF9ovd1yhA2_wvXzmOl-4" target="rUF9ovd1yhA2_wvXzmOl-3" edge="1">
          <mxGeometry width="50" height="50" relative="1" as="geometry">
            <mxPoint x="130" y="250" as="sourcePoint" />
            <mxPoint x="180" y="200" as="targetPoint" />
          </mxGeometry>
        </mxCell>
        <mxCell id="rUF9ovd1yhA2_wvXzmOl-6" value="" style="endArrow=classic;html=1;rounded=0;exitX=1;exitY=0.5;exitDx=0;exitDy=0;entryX=0;entryY=0.5;entryDx=0;entryDy=0;startArrow=none;" parent="rUF9ovd1yhA2_wvXzmOl-1" source="rUF9ovd1yhA2_wvXzmOl-18" target="rUF9ovd1yhA2_wvXzmOl-7" edge="1">
          <mxGeometry width="50" height="50" relative="1" as="geometry">
            <mxPoint x="420" y="260" as="sourcePoint" />
            <mxPoint x="470" y="210" as="targetPoint" />
          </mxGeometry>
        </mxCell>
        <mxCell id="rUF9ovd1yhA2_wvXzmOl-7" value="Pull changes" style="rounded=1;whiteSpace=wrap;html=1;fillColor=#dae8fc;strokeColor=#6c8ebf;" parent="rUF9ovd1yhA2_wvXzmOl-1" vertex="1">
          <mxGeometry x="550" y="130" width="120" height="60" as="geometry" />
        </mxCell>
        <mxCell id="rUF9ovd1yhA2_wvXzmOl-8" value="Run mutation tool" style="rounded=1;whiteSpace=wrap;html=1;fillColor=#dae8fc;strokeColor=#6c8ebf;" parent="rUF9ovd1yhA2_wvXzmOl-1" vertex="1">
          <mxGeometry x="730" y="210" width="120" height="60" as="geometry" />
        </mxCell>
        <mxCell id="rUF9ovd1yhA2_wvXzmOl-10" value="Save mutation testing result" style="rounded=1;whiteSpace=wrap;html=1;fillColor=#dae8fc;strokeColor=#6c8ebf;" parent="rUF9ovd1yhA2_wvXzmOl-1" vertex="1">
          <mxGeometry x="550" y="210" width="120" height="60" as="geometry" />
        </mxCell>
        <mxCell id="rUF9ovd1yhA2_wvXzmOl-12" value="" style="endArrow=classic;html=1;rounded=0;exitX=1;exitY=0.5;exitDx=0;exitDy=0;entryX=0;entryY=0.5;entryDx=0;entryDy=0;" parent="rUF9ovd1yhA2_wvXzmOl-1" source="rUF9ovd1yhA2_wvXzmOl-7" target="Hjc6JwtdTRfaPBpRdP_K-0" edge="1">
          <mxGeometry width="50" height="50" relative="1" as="geometry">
            <mxPoint x="500" y="350" as="sourcePoint" />
            <mxPoint x="550" y="300" as="targetPoint" />
            <Array as="points">
              <mxPoint x="720" y="160" />
            </Array>
          </mxGeometry>
        </mxCell>
        <mxCell id="rUF9ovd1yhA2_wvXzmOl-15" value="" style="endArrow=classic;html=1;rounded=0;exitX=0;exitY=0.5;exitDx=0;exitDy=0;" parent="rUF9ovd1yhA2_wvXzmOl-1" source="rUF9ovd1yhA2_wvXzmOl-10" target="rUF9ovd1yhA2_wvXzmOl-4" edge="1">
          <mxGeometry width="50" height="50" relative="1" as="geometry">
            <mxPoint x="260" y="330" as="sourcePoint" />
            <mxPoint x="310" y="280" as="targetPoint" />
            <Array as="points">
              <mxPoint x="95" y="240" />
            </Array>
          </mxGeometry>
        </mxCell>
        <mxCell id="rUF9ovd1yhA2_wvXzmOl-16" value="GitHub Actions workflow" style="text;html=1;strokeColor=none;fillColor=none;align=center;verticalAlign=middle;whiteSpace=wrap;rounded=0;" parent="rUF9ovd1yhA2_wvXzmOl-1" vertex="1">
          <mxGeometry x="535" y="90" width="150" height="20" as="geometry" />
        </mxCell>
        <mxCell id="rUF9ovd1yhA2_wvXzmOl-17" value="Developer" style="text;html=1;strokeColor=none;fillColor=none;align=center;verticalAlign=middle;whiteSpace=wrap;rounded=0;" parent="rUF9ovd1yhA2_wvXzmOl-1" vertex="1">
          <mxGeometry x="65" y="105" width="60" height="30" as="geometry" />
        </mxCell>
        <mxCell id="rUF9ovd1yhA2_wvXzmOl-18" value="Find runner" style="rounded=0;whiteSpace=wrap;html=1;fillColor=#d5e8d4;strokeColor=#82b366;" parent="rUF9ovd1yhA2_wvXzmOl-1" vertex="1">
          <mxGeometry x="354" y="130" width="120" height="60" as="geometry" />
        </mxCell>
        <mxCell id="Hjc6JwtdTRfaPBpRdP_K-0" value="Download and install dependencies" style="rounded=1;whiteSpace=wrap;html=1;fillColor=#dae8fc;strokeColor=#6c8ebf;" parent="rUF9ovd1yhA2_wvXzmOl-1" vertex="1">
          <mxGeometry x="730" y="130" width="120" height="60" as="geometry" />
        </mxCell>
        <mxCell id="Hjc6JwtdTRfaPBpRdP_K-1" value="" style="endArrow=classic;html=1;rounded=0;exitX=1;exitY=0.5;exitDx=0;exitDy=0;entryX=0;entryY=0.5;entryDx=0;entryDy=0;" parent="rUF9ovd1yhA2_wvXzmOl-1" source="rUF9ovd1yhA2_wvXzmOl-3" target="rUF9ovd1yhA2_wvXzmOl-18" edge="1">
          <mxGeometry width="50" height="50" relative="1" as="geometry">
            <mxPoint x="560" y="280" as="sourcePoint" />
            <mxPoint x="610" y="230" as="targetPoint" />
          </mxGeometry>
        </mxCell>
        <mxCell id="Hjc6JwtdTRfaPBpRdP_K-2" value="" style="endArrow=classic;html=1;rounded=0;exitX=1;exitY=0.5;exitDx=0;exitDy=0;entryX=1;entryY=0.5;entryDx=0;entryDy=0;" parent="rUF9ovd1yhA2_wvXzmOl-1" source="Hjc6JwtdTRfaPBpRdP_K-0" target="rUF9ovd1yhA2_wvXzmOl-8" edge="1">
          <mxGeometry width="50" height="50" relative="1" as="geometry">
            <mxPoint x="1010" y="280" as="sourcePoint" />
            <mxPoint x="1060" y="230" as="targetPoint" />
            <Array as="points">
              <mxPoint x="870" y="160" />
              <mxPoint x="870" y="240" />
            </Array>
          </mxGeometry>
        </mxCell>
        <mxCell id="Hjc6JwtdTRfaPBpRdP_K-3" value="" style="endArrow=classic;html=1;rounded=0;exitX=0;exitY=0.5;exitDx=0;exitDy=0;entryX=1;entryY=0.5;entryDx=0;entryDy=0;" parent="rUF9ovd1yhA2_wvXzmOl-1" source="rUF9ovd1yhA2_wvXzmOl-8" target="rUF9ovd1yhA2_wvXzmOl-10" edge="1">
          <mxGeometry width="50" height="50" relative="1" as="geometry">
            <mxPoint x="560" y="280" as="sourcePoint" />
            <mxPoint x="610" y="230" as="targetPoint" />
          </mxGeometry>
        </mxCell>
      </root>
    </mxGraphModel>
  </diagram>
  <diagram id="wc36L7jaTv6U293NqGRy" name="Page-2">
    <mxGraphModel dx="1422" dy="754" grid="1" gridSize="10" guides="1" tooltips="1" connect="1" arrows="1" fold="1" page="1" pageScale="1" pageWidth="827" pageHeight="1169" math="0" shadow="0">
      <root>
        <mxCell id="0" />
        <mxCell id="1" parent="0" />
        <mxCell id="C91a_KMkJ_EnUS5dbpiA-1" value="" style="rounded=0;whiteSpace=wrap;html=1;fillColor=#f5f5f5;fontColor=#333333;strokeColor=#666666;" parent="1" vertex="1">
          <mxGeometry x="350" y="40" width="420" height="310" as="geometry" />
        </mxCell>
        <mxCell id="C91a_KMkJ_EnUS5dbpiA-2" value="Commit" style="rounded=0;whiteSpace=wrap;html=1;fillColor=#d5e8d4;strokeColor=#82b366;" parent="1" vertex="1">
          <mxGeometry x="180" y="130" width="120" height="60" as="geometry" />
        </mxCell>
        <mxCell id="C91a_KMkJ_EnUS5dbpiA-3" value="" style="shape=umlActor;verticalLabelPosition=bottom;verticalAlign=top;html=1;outlineConnect=0;fillColor=#f5f5f5;strokeColor=#666666;fontColor=#333333;" parent="1" vertex="1">
          <mxGeometry x="80" y="130" width="30" height="60" as="geometry" />
        </mxCell>
        <mxCell id="C91a_KMkJ_EnUS5dbpiA-4" value="" style="endArrow=classic;html=1;rounded=0;entryX=0;entryY=0.5;entryDx=0;entryDy=0;" parent="1" source="C91a_KMkJ_EnUS5dbpiA-3" target="C91a_KMkJ_EnUS5dbpiA-2" edge="1">
          <mxGeometry width="50" height="50" relative="1" as="geometry">
            <mxPoint x="130" y="250" as="sourcePoint" />
            <mxPoint x="180" y="200" as="targetPoint" />
          </mxGeometry>
        </mxCell>
        <mxCell id="C91a_KMkJ_EnUS5dbpiA-5" value="" style="endArrow=classic;html=1;rounded=0;exitX=1;exitY=0.5;exitDx=0;exitDy=0;entryX=0;entryY=0.5;entryDx=0;entryDy=0;startArrow=none;" parent="1" source="C91a_KMkJ_EnUS5dbpiA-2" target="C91a_KMkJ_EnUS5dbpiA-6" edge="1">
          <mxGeometry width="50" height="50" relative="1" as="geometry">
            <mxPoint x="474" y="160" as="sourcePoint" />
            <mxPoint x="470" y="210" as="targetPoint" />
          </mxGeometry>
        </mxCell>
        <mxCell id="C91a_KMkJ_EnUS5dbpiA-6" value="Setup job" style="rounded=1;whiteSpace=wrap;html=1;fillColor=#dae8fc;strokeColor=#6c8ebf;" parent="1" vertex="1">
          <mxGeometry x="370" y="130" width="120" height="60" as="geometry" />
        </mxCell>
        <mxCell id="C91a_KMkJ_EnUS5dbpiA-7" value="Dextool" style="rounded=1;whiteSpace=wrap;html=1;fillColor=#dae8fc;strokeColor=#6c8ebf;" parent="1" vertex="1">
          <mxGeometry x="560" y="130" width="120" height="60" as="geometry" />
        </mxCell>
        <mxCell id="C91a_KMkJ_EnUS5dbpiA-9" value="Artifactory" style="rounded=1;whiteSpace=wrap;html=1;fillColor=#dae8fc;strokeColor=#6c8ebf;" parent="1" vertex="1">
          <mxGeometry x="560" y="230" width="120" height="60" as="geometry" />
        </mxCell>
        <mxCell id="C91a_KMkJ_EnUS5dbpiA-10" value="" style="endArrow=classic;html=1;rounded=0;exitX=1;exitY=0.5;exitDx=0;exitDy=0;entryX=0;entryY=0.5;entryDx=0;entryDy=0;" parent="1" source="C91a_KMkJ_EnUS5dbpiA-6" target="C91a_KMkJ_EnUS5dbpiA-7" edge="1">
          <mxGeometry width="50" height="50" relative="1" as="geometry">
            <mxPoint x="360" y="330" as="sourcePoint" />
            <mxPoint x="370" y="310" as="targetPoint" />
            <Array as="points">
              <mxPoint x="540" y="160" />
            </Array>
          </mxGeometry>
        </mxCell>
        <mxCell id="C91a_KMkJ_EnUS5dbpiA-12" value="" style="endArrow=classic;html=1;rounded=0;exitX=1;exitY=0.5;exitDx=0;exitDy=0;entryX=1;entryY=0.5;entryDx=0;entryDy=0;" parent="1" source="C91a_KMkJ_EnUS5dbpiA-7" target="C91a_KMkJ_EnUS5dbpiA-9" edge="1">
          <mxGeometry width="50" height="50" relative="1" as="geometry">
            <mxPoint x="690" y="590" as="sourcePoint" />
            <mxPoint x="740" y="540" as="targetPoint" />
            <Array as="points">
              <mxPoint x="710" y="160" />
              <mxPoint x="710" y="260" />
            </Array>
          </mxGeometry>
        </mxCell>
        <mxCell id="C91a_KMkJ_EnUS5dbpiA-14" value="" style="endArrow=classic;html=1;rounded=0;exitX=0;exitY=0.5;exitDx=0;exitDy=0;" parent="1" source="C91a_KMkJ_EnUS5dbpiA-9" target="C91a_KMkJ_EnUS5dbpiA-3" edge="1">
          <mxGeometry width="50" height="50" relative="1" as="geometry">
            <mxPoint x="260" y="330" as="sourcePoint" />
            <mxPoint x="310" y="280" as="targetPoint" />
            <Array as="points">
              <mxPoint x="95" y="260" />
            </Array>
          </mxGeometry>
        </mxCell>
        <mxCell id="C91a_KMkJ_EnUS5dbpiA-15" value="GitHub Actions workflow" style="text;html=1;strokeColor=none;fillColor=none;align=center;verticalAlign=middle;whiteSpace=wrap;rounded=0;" parent="1" vertex="1">
          <mxGeometry x="470" y="60" width="150" height="20" as="geometry" />
        </mxCell>
        <mxCell id="C91a_KMkJ_EnUS5dbpiA-16" value="Developer" style="text;html=1;strokeColor=none;fillColor=none;align=center;verticalAlign=middle;whiteSpace=wrap;rounded=0;" parent="1" vertex="1">
          <mxGeometry x="65" y="105" width="60" height="30" as="geometry" />
        </mxCell>
      </root>
    </mxGraphModel>
  </diagram>
  <diagram id="ome5u_xVPGNZbzC88Or2" name="Page-4">
    <mxGraphModel dx="2585" dy="1371" grid="1" gridSize="10" guides="1" tooltips="1" connect="1" arrows="1" fold="1" page="1" pageScale="1" pageWidth="827" pageHeight="1169" math="0" shadow="0">
      <root>
        <mxCell id="0" />
        <mxCell id="1" parent="0" />
        <mxCell id="7rRSaG8nYFPcw-TCQ7_x-1" value="Verify test quality" style="ellipse;whiteSpace=wrap;html=1;" parent="1" vertex="1">
          <mxGeometry x="550" y="130" width="120" height="80" as="geometry" />
        </mxCell>
        <mxCell id="7rRSaG8nYFPcw-TCQ7_x-2" value="Test quality&lt;br&gt;maintenance" style="ellipse;whiteSpace=wrap;html=1;" parent="1" vertex="1">
          <mxGeometry x="550" y="230" width="120" height="80" as="geometry" />
        </mxCell>
        <mxCell id="7rRSaG8nYFPcw-TCQ7_x-3" value="Mutation score as coverage metric" style="ellipse;whiteSpace=wrap;html=1;fillColor=#dae8fc;strokeColor=#6c8ebf;" parent="1" vertex="1">
          <mxGeometry x="550" y="330" width="120" height="80" as="geometry" />
        </mxCell>
        <mxCell id="7rRSaG8nYFPcw-TCQ7_x-4" value="Mutation score as acceptance criteria" style="ellipse;whiteSpace=wrap;html=1;fillColor=#dae8fc;strokeColor=#6c8ebf;" parent="1" vertex="1">
          <mxGeometry x="550" y="430" width="120" height="80" as="geometry" />
        </mxCell>
        <mxCell id="7rRSaG8nYFPcw-TCQ7_x-5" value="Prioritize important code" style="ellipse;whiteSpace=wrap;html=1;fillColor=#d5e8d4;strokeColor=#82b366;" parent="1" vertex="1">
          <mxGeometry x="550" y="530" width="120" height="80" as="geometry" />
        </mxCell>
        <mxCell id="7rRSaG8nYFPcw-TCQ7_x-6" value="Developer motivation" style="ellipse;whiteSpace=wrap;html=1;fillColor=#d5e8d4;strokeColor=#82b366;" parent="1" vertex="1">
          <mxGeometry x="550" y="630" width="120" height="80" as="geometry" />
        </mxCell>
        <mxCell id="7rRSaG8nYFPcw-TCQ7_x-7" value="Focus on the wrong thing" style="ellipse;whiteSpace=wrap;html=1;fillColor=#d5e8d4;strokeColor=#82b366;" parent="1" vertex="1">
          <mxGeometry x="550" y="730" width="120" height="80" as="geometry" />
        </mxCell>
        <mxCell id="7rRSaG8nYFPcw-TCQ7_x-8" value="Task priorization" style="ellipse;whiteSpace=wrap;html=1;fillColor=#d5e8d4;strokeColor=#82b366;" parent="1" vertex="1">
          <mxGeometry x="550" y="830" width="120" height="80" as="geometry" />
        </mxCell>
        <mxCell id="7rRSaG8nYFPcw-TCQ7_x-9" value="Diminishing returns" style="ellipse;whiteSpace=wrap;html=1;fillColor=#d5e8d4;strokeColor=#82b366;" parent="1" vertex="1">
          <mxGeometry x="550" y="930" width="120" height="80" as="geometry" />
        </mxCell>
        <mxCell id="7rRSaG8nYFPcw-TCQ7_x-10" value="Ease of use" style="ellipse;whiteSpace=wrap;html=1;fillColor=#ffe6cc;strokeColor=#d79b00;" parent="1" vertex="1">
          <mxGeometry x="550" y="1030" width="120" height="80" as="geometry" />
        </mxCell>
        <mxCell id="7rRSaG8nYFPcw-TCQ7_x-11" value="Initial effort" style="ellipse;whiteSpace=wrap;html=1;fillColor=#ffe6cc;strokeColor=#d79b00;" parent="1" vertex="1">
          <mxGeometry x="560" y="1130" width="120" height="80" as="geometry" />
        </mxCell>
        <mxCell id="7rRSaG8nYFPcw-TCQ7_x-12" value="Developer feedback" style="ellipse;whiteSpace=wrap;html=1;fillColor=#ffe6cc;strokeColor=#d79b00;" parent="1" vertex="1">
          <mxGeometry x="560" y="1230" width="120" height="80" as="geometry" />
        </mxCell>
        <mxCell id="7rRSaG8nYFPcw-TCQ7_x-13" value="Time-aware feedback" style="ellipse;whiteSpace=wrap;html=1;fillColor=#ffe6cc;strokeColor=#d79b00;" parent="1" vertex="1">
          <mxGeometry x="560" y="1330" width="120" height="80" as="geometry" />
        </mxCell>
        <mxCell id="7rRSaG8nYFPcw-TCQ7_x-14" value="Mutation operators" style="ellipse;whiteSpace=wrap;html=1;fillColor=#ffe6cc;strokeColor=#d79b00;" parent="1" vertex="1">
          <mxGeometry x="560" y="1430" width="120" height="80" as="geometry" />
        </mxCell>
        <mxCell id="7rRSaG8nYFPcw-TCQ7_x-15" value="Code review and pair programming" style="ellipse;whiteSpace=wrap;html=1;fillColor=#f8cecc;strokeColor=#b85450;" parent="1" vertex="1">
          <mxGeometry x="560" y="1530" width="120" height="80" as="geometry" />
        </mxCell>
        <mxCell id="7rRSaG8nYFPcw-TCQ7_x-16" value="Run periodically" style="ellipse;whiteSpace=wrap;html=1;fillColor=#f8cecc;strokeColor=#b85450;" parent="1" vertex="1">
          <mxGeometry x="560" y="1630" width="120" height="80" as="geometry" />
        </mxCell>
        <mxCell id="7rRSaG8nYFPcw-TCQ7_x-17" value="Outside of CI" style="ellipse;whiteSpace=wrap;html=1;fillColor=#f8cecc;strokeColor=#b85450;" parent="1" vertex="1">
          <mxGeometry x="560" y="1730" width="120" height="80" as="geometry" />
        </mxCell>
        <mxCell id="7rRSaG8nYFPcw-TCQ7_x-18" value="Optional step" style="ellipse;whiteSpace=wrap;html=1;fillColor=#f8cecc;strokeColor=#b85450;" parent="1" vertex="1">
          <mxGeometry x="560" y="1830" width="120" height="80" as="geometry" />
        </mxCell>
        <mxCell id="7rRSaG8nYFPcw-TCQ7_x-19" value="Verify test quality" style="ellipse;whiteSpace=wrap;html=1;fillColor=#dae8fc;strokeColor=#6c8ebf;" parent="1" vertex="1">
          <mxGeometry x="550" y="130" width="120" height="80" as="geometry" />
        </mxCell>
        <mxCell id="7rRSaG8nYFPcw-TCQ7_x-20" value="Test quality&lt;br&gt;maintenance" style="ellipse;whiteSpace=wrap;html=1;fillColor=#dae8fc;strokeColor=#6c8ebf;" parent="1" vertex="1">
          <mxGeometry x="550" y="230" width="120" height="80" as="geometry" />
        </mxCell>
        <mxCell id="7rRSaG8nYFPcw-TCQ7_x-21" value="Selective mutation selection" style="rounded=0;whiteSpace=wrap;html=1;fillColor=#f5f5f5;fontColor=#333333;strokeColor=#666666;" parent="1" vertex="1">
          <mxGeometry x="50" y="1210" width="120" height="60" as="geometry" />
        </mxCell>
        <mxCell id="7rRSaG8nYFPcw-TCQ7_x-22" value="Mutant schemas" style="rounded=0;whiteSpace=wrap;html=1;fillColor=#f5f5f5;fontColor=#333333;strokeColor=#666666;" parent="1" vertex="1">
          <mxGeometry x="50" y="1280" width="120" height="60" as="geometry" />
        </mxCell>
        <mxCell id="7rRSaG8nYFPcw-TCQ7_x-23" value="One mutant per code line" style="rounded=0;whiteSpace=wrap;html=1;fillColor=#f5f5f5;fontColor=#333333;strokeColor=#666666;" parent="1" vertex="1">
          <mxGeometry x="50" y="1350" width="120" height="60" as="geometry" />
        </mxCell>
        <mxCell id="7rRSaG8nYFPcw-TCQ7_x-24" value="Mutation selection based on data" style="rounded=0;whiteSpace=wrap;html=1;fillColor=#f5f5f5;fontColor=#333333;strokeColor=#666666;" parent="1" vertex="1">
          <mxGeometry x="50" y="1420" width="120" height="60" as="geometry" />
        </mxCell>
        <mxCell id="7rRSaG8nYFPcw-TCQ7_x-25" value="" style="endArrow=classic;html=1;rounded=0;exitX=1;exitY=0.5;exitDx=0;exitDy=0;entryX=0;entryY=0.5;entryDx=0;entryDy=0;" parent="1" source="7rRSaG8nYFPcw-TCQ7_x-21" target="7rRSaG8nYFPcw-TCQ7_x-13" edge="1">
          <mxGeometry width="50" height="50" relative="1" as="geometry">
            <mxPoint x="350" y="1350" as="sourcePoint" />
            <mxPoint x="400" y="1300" as="targetPoint" />
          </mxGeometry>
        </mxCell>
        <mxCell id="7rRSaG8nYFPcw-TCQ7_x-26" value="" style="endArrow=classic;html=1;rounded=0;exitX=1;exitY=0.5;exitDx=0;exitDy=0;entryX=0;entryY=0.5;entryDx=0;entryDy=0;" parent="1" source="7rRSaG8nYFPcw-TCQ7_x-22" target="7rRSaG8nYFPcw-TCQ7_x-13" edge="1">
          <mxGeometry width="50" height="50" relative="1" as="geometry">
            <mxPoint x="340" y="1430" as="sourcePoint" />
            <mxPoint x="390" y="1380" as="targetPoint" />
          </mxGeometry>
        </mxCell>
        <mxCell id="7rRSaG8nYFPcw-TCQ7_x-27" value="" style="endArrow=classic;html=1;rounded=0;exitX=1;exitY=0.5;exitDx=0;exitDy=0;entryX=0;entryY=0.5;entryDx=0;entryDy=0;" parent="1" source="7rRSaG8nYFPcw-TCQ7_x-23" target="7rRSaG8nYFPcw-TCQ7_x-13" edge="1">
          <mxGeometry width="50" height="50" relative="1" as="geometry">
            <mxPoint x="340" y="1460" as="sourcePoint" />
            <mxPoint x="390" y="1410" as="targetPoint" />
          </mxGeometry>
        </mxCell>
        <mxCell id="7rRSaG8nYFPcw-TCQ7_x-28" value="" style="endArrow=classic;html=1;rounded=0;exitX=1;exitY=0.5;exitDx=0;exitDy=0;entryX=0;entryY=0.5;entryDx=0;entryDy=0;" parent="1" source="7rRSaG8nYFPcw-TCQ7_x-24" target="7rRSaG8nYFPcw-TCQ7_x-14" edge="1">
          <mxGeometry width="50" height="50" relative="1" as="geometry">
            <mxPoint x="320" y="1500" as="sourcePoint" />
            <mxPoint x="560" y="1370" as="targetPoint" />
          </mxGeometry>
        </mxCell>
        <mxCell id="7rRSaG8nYFPcw-TCQ7_x-29" value="Only run relevant mutants" style="rounded=0;whiteSpace=wrap;html=1;fillColor=#f5f5f5;fontColor=#333333;strokeColor=#666666;" parent="1" vertex="1">
          <mxGeometry x="50" y="1485" width="120" height="60" as="geometry" />
        </mxCell>
        <mxCell id="7rRSaG8nYFPcw-TCQ7_x-30" value="Mutate code changes" style="rounded=0;whiteSpace=wrap;html=1;fillColor=#f5f5f5;fontColor=#333333;strokeColor=#666666;" parent="1" vertex="1">
          <mxGeometry x="50" y="1555" width="120" height="60" as="geometry" />
        </mxCell>
        <mxCell id="7rRSaG8nYFPcw-TCQ7_x-32" value="Filter code based on patterns" style="rounded=0;whiteSpace=wrap;html=1;fillColor=#f5f5f5;fontColor=#333333;strokeColor=#666666;" parent="1" vertex="1">
          <mxGeometry x="50" y="1625" width="120" height="60" as="geometry" />
        </mxCell>
        <mxCell id="7rRSaG8nYFPcw-TCQ7_x-33" value="Introduce real world bugs" style="rounded=0;whiteSpace=wrap;html=1;fillColor=#f5f5f5;fontColor=#333333;strokeColor=#666666;" parent="1" vertex="1">
          <mxGeometry x="50" y="1699" width="120" height="60" as="geometry" />
        </mxCell>
        <mxCell id="7rRSaG8nYFPcw-TCQ7_x-34" value="Present a limited amount of mutants" style="rounded=0;whiteSpace=wrap;html=1;fillColor=#f5f5f5;fontColor=#333333;strokeColor=#666666;" parent="1" vertex="1">
          <mxGeometry x="50" y="1774.5" width="120" height="60" as="geometry" />
        </mxCell>
        <mxCell id="7rRSaG8nYFPcw-TCQ7_x-35" value="" style="endArrow=classic;html=1;rounded=0;entryX=0;entryY=0.5;entryDx=0;entryDy=0;exitX=1;exitY=0.5;exitDx=0;exitDy=0;" parent="1" source="7rRSaG8nYFPcw-TCQ7_x-33" target="7rRSaG8nYFPcw-TCQ7_x-6" edge="1">
          <mxGeometry width="50" height="50" relative="1" as="geometry">
            <mxPoint x="240" y="1530" as="sourcePoint" />
            <mxPoint x="290" y="1480" as="targetPoint" />
          </mxGeometry>
        </mxCell>
        <mxCell id="7rRSaG8nYFPcw-TCQ7_x-36" value="" style="endArrow=classic;html=1;rounded=0;exitX=1;exitY=0.5;exitDx=0;exitDy=0;entryX=0;entryY=0.5;entryDx=0;entryDy=0;" parent="1" source="7rRSaG8nYFPcw-TCQ7_x-32" target="7rRSaG8nYFPcw-TCQ7_x-6" edge="1">
          <mxGeometry width="50" height="50" relative="1" as="geometry">
            <mxPoint x="290" y="1430" as="sourcePoint" />
            <mxPoint x="340" y="1380" as="targetPoint" />
          </mxGeometry>
        </mxCell>
        <mxCell id="7rRSaG8nYFPcw-TCQ7_x-37" value="" style="endArrow=classic;html=1;rounded=0;entryX=0;entryY=0.5;entryDx=0;entryDy=0;exitX=1;exitY=0.5;exitDx=0;exitDy=0;" parent="1" source="7rRSaG8nYFPcw-TCQ7_x-21" target="7rRSaG8nYFPcw-TCQ7_x-6" edge="1">
          <mxGeometry width="50" height="50" relative="1" as="geometry">
            <mxPoint x="240" y="780" as="sourcePoint" />
            <mxPoint x="290" y="730" as="targetPoint" />
          </mxGeometry>
        </mxCell>
        <mxCell id="7rRSaG8nYFPcw-TCQ7_x-42" value="" style="curved=1;endArrow=classic;html=1;rounded=0;exitX=1;exitY=0.5;exitDx=0;exitDy=0;entryX=1;entryY=0.5;entryDx=0;entryDy=0;" parent="1" source="7rRSaG8nYFPcw-TCQ7_x-16" target="7rRSaG8nYFPcw-TCQ7_x-20" edge="1">
          <mxGeometry width="50" height="50" relative="1" as="geometry">
            <mxPoint x="700" y="1670" as="sourcePoint" />
            <mxPoint x="800" y="770" as="targetPoint" />
            <Array as="points">
              <mxPoint x="800" y="1660" />
              <mxPoint x="800" y="360" />
            </Array>
          </mxGeometry>
        </mxCell>
        <mxCell id="7rRSaG8nYFPcw-TCQ7_x-43" value="" style="curved=1;endArrow=classic;html=1;rounded=0;exitX=1;exitY=0.5;exitDx=0;exitDy=0;" parent="1" source="7rRSaG8nYFPcw-TCQ7_x-5" edge="1">
          <mxGeometry width="50" height="50" relative="1" as="geometry">
            <mxPoint x="700" y="540" as="sourcePoint" />
            <mxPoint x="670" y="270" as="targetPoint" />
            <Array as="points">
              <mxPoint x="750" y="540" />
              <mxPoint x="750" y="340" />
            </Array>
          </mxGeometry>
        </mxCell>
        <mxCell id="7rRSaG8nYFPcw-TCQ7_x-44" value="Resume mutation testing" style="rounded=0;whiteSpace=wrap;html=1;fillColor=#e1d5e7;strokeColor=#9673a6;" parent="1" vertex="1">
          <mxGeometry x="30" y="240" width="120" height="60" as="geometry" />
        </mxCell>
        <mxCell id="7rRSaG8nYFPcw-TCQ7_x-45" value="" style="endArrow=classic;html=1;rounded=0;exitX=1;exitY=0.5;exitDx=0;exitDy=0;entryX=0;entryY=0.5;entryDx=0;entryDy=0;" parent="1" source="7rRSaG8nYFPcw-TCQ7_x-44" target="7rRSaG8nYFPcw-TCQ7_x-20" edge="1">
          <mxGeometry width="50" height="50" relative="1" as="geometry">
            <mxPoint x="560" y="650" as="sourcePoint" />
            <mxPoint x="610" y="600" as="targetPoint" />
          </mxGeometry>
        </mxCell>
        <mxCell id="7rRSaG8nYFPcw-TCQ7_x-47" value="" style="curved=1;endArrow=classic;html=1;rounded=0;exitX=1;exitY=0.5;exitDx=0;exitDy=0;" parent="1" source="7rRSaG8nYFPcw-TCQ7_x-3" edge="1">
          <mxGeometry width="50" height="50" relative="1" as="geometry">
            <mxPoint x="670" y="400" as="sourcePoint" />
            <mxPoint x="670" y="280" as="targetPoint" />
            <Array as="points">
              <mxPoint x="730" y="370" />
              <mxPoint x="720" y="290" />
            </Array>
          </mxGeometry>
        </mxCell>
        <mxCell id="7rRSaG8nYFPcw-TCQ7_x-48" value="Skip old killed mutants" style="rounded=0;whiteSpace=wrap;html=1;fillColor=#e1d5e7;strokeColor=#9673a6;" parent="1" vertex="1">
          <mxGeometry x="30" y="310" width="120" height="60" as="geometry" />
        </mxCell>
        <mxCell id="7rRSaG8nYFPcw-TCQ7_x-49" value="" style="endArrow=classic;html=1;rounded=0;exitX=1;exitY=0.5;exitDx=0;exitDy=0;entryX=0;entryY=0.5;entryDx=0;entryDy=0;" parent="1" source="7rRSaG8nYFPcw-TCQ7_x-48" target="7rRSaG8nYFPcw-TCQ7_x-20" edge="1">
          <mxGeometry width="50" height="50" relative="1" as="geometry">
            <mxPoint x="270" y="400" as="sourcePoint" />
            <mxPoint x="320" y="350" as="targetPoint" />
          </mxGeometry>
        </mxCell>
        <mxCell id="7rRSaG8nYFPcw-TCQ7_x-50" value="Flag mutants as irrelevant" style="rounded=0;whiteSpace=wrap;html=1;fillColor=#e1d5e7;strokeColor=#9673a6;" parent="1" vertex="1">
          <mxGeometry x="30" y="380" width="120" height="60" as="geometry" />
        </mxCell>
        <mxCell id="7rRSaG8nYFPcw-TCQ7_x-51" value="" style="endArrow=classic;html=1;rounded=0;exitX=1;exitY=0.5;exitDx=0;exitDy=0;entryX=0;entryY=0.5;entryDx=0;entryDy=0;" parent="1" source="7rRSaG8nYFPcw-TCQ7_x-50" target="7rRSaG8nYFPcw-TCQ7_x-20" edge="1">
          <mxGeometry width="50" height="50" relative="1" as="geometry">
            <mxPoint x="270" y="440" as="sourcePoint" />
            <mxPoint x="320" y="390" as="targetPoint" />
          </mxGeometry>
        </mxCell>
        <mxCell id="7rRSaG8nYFPcw-TCQ7_x-52" value="" style="endArrow=classic;html=1;rounded=0;exitX=0.993;exitY=0.422;exitDx=0;exitDy=0;exitPerimeter=0;entryX=0;entryY=0.5;entryDx=0;entryDy=0;" parent="1" source="7rRSaG8nYFPcw-TCQ7_x-50" target="7rRSaG8nYFPcw-TCQ7_x-3" edge="1">
          <mxGeometry width="50" height="50" relative="1" as="geometry">
            <mxPoint x="310" y="470" as="sourcePoint" />
            <mxPoint x="360" y="420" as="targetPoint" />
          </mxGeometry>
        </mxCell>
        <mxCell id="7rRSaG8nYFPcw-TCQ7_x-54" value="Parallelization" style="rounded=0;whiteSpace=wrap;html=1;fillColor=#e1d5e7;strokeColor=#9673a6;" parent="1" vertex="1">
          <mxGeometry x="30" y="170" width="120" height="60" as="geometry" />
        </mxCell>
        <mxCell id="7rRSaG8nYFPcw-TCQ7_x-55" value="" style="endArrow=classic;html=1;rounded=0;exitX=1;exitY=0.5;exitDx=0;exitDy=0;entryX=0;entryY=0.5;entryDx=0;entryDy=0;" parent="1" source="7rRSaG8nYFPcw-TCQ7_x-54" target="7rRSaG8nYFPcw-TCQ7_x-13" edge="1">
          <mxGeometry width="50" height="50" relative="1" as="geometry">
            <mxPoint x="310" y="210" as="sourcePoint" />
            <mxPoint x="480" y="1010" as="targetPoint" />
          </mxGeometry>
        </mxCell>
        <mxCell id="7rRSaG8nYFPcw-TCQ7_x-56" value="Mutation schemas" style="rounded=0;whiteSpace=wrap;html=1;fillColor=#e1d5e7;strokeColor=#9673a6;" parent="1" vertex="1">
          <mxGeometry x="30" y="450" width="120" height="60" as="geometry" />
        </mxCell>
        <mxCell id="7rRSaG8nYFPcw-TCQ7_x-57" value="" style="endArrow=classic;html=1;rounded=0;exitX=1;exitY=0.5;exitDx=0;exitDy=0;" parent="1" source="7rRSaG8nYFPcw-TCQ7_x-56" edge="1">
          <mxGeometry width="50" height="50" relative="1" as="geometry">
            <mxPoint x="240" y="580" as="sourcePoint" />
            <mxPoint x="560" y="1370" as="targetPoint" />
          </mxGeometry>
        </mxCell>
        <mxCell id="7rRSaG8nYFPcw-TCQ7_x-58" value="Only mutate covered code" style="rounded=0;whiteSpace=wrap;html=1;fillColor=#e1d5e7;strokeColor=#9673a6;" parent="1" vertex="1">
          <mxGeometry x="30" y="520" width="120" height="60" as="geometry" />
        </mxCell>
        <mxCell id="7rRSaG8nYFPcw-TCQ7_x-59" value="" style="endArrow=classic;html=1;rounded=0;exitX=1;exitY=0.5;exitDx=0;exitDy=0;entryX=0;entryY=0.5;entryDx=0;entryDy=0;" parent="1" source="7rRSaG8nYFPcw-TCQ7_x-58" target="7rRSaG8nYFPcw-TCQ7_x-13" edge="1">
          <mxGeometry width="50" height="50" relative="1" as="geometry">
            <mxPoint x="170" y="690" as="sourcePoint" />
            <mxPoint x="220" y="640" as="targetPoint" />
          </mxGeometry>
        </mxCell>
        <mxCell id="7rRSaG8nYFPcw-TCQ7_x-60" value="" style="curved=1;endArrow=classic;html=1;rounded=0;exitX=1;exitY=0.5;exitDx=0;exitDy=0;entryX=1;entryY=0.5;entryDx=0;entryDy=0;" parent="1" source="7rRSaG8nYFPcw-TCQ7_x-15" target="7rRSaG8nYFPcw-TCQ7_x-19" edge="1">
          <mxGeometry width="50" height="50" relative="1" as="geometry">
            <mxPoint x="740" y="880" as="sourcePoint" />
            <mxPoint x="790" y="830" as="targetPoint" />
            <Array as="points">
              <mxPoint x="800" y="1440" />
              <mxPoint x="780" y="220" />
            </Array>
          </mxGeometry>
        </mxCell>
        <mxCell id="7rRSaG8nYFPcw-TCQ7_x-61" value="" style="curved=1;endArrow=classic;html=1;rounded=0;exitX=1;exitY=0.5;exitDx=0;exitDy=0;entryX=1;entryY=0.5;entryDx=0;entryDy=0;" parent="1" source="7rRSaG8nYFPcw-TCQ7_x-17" target="7rRSaG8nYFPcw-TCQ7_x-15" edge="1">
          <mxGeometry width="50" height="50" relative="1" as="geometry">
            <mxPoint x="720" y="1800" as="sourcePoint" />
            <mxPoint x="770" y="1750" as="targetPoint" />
            <Array as="points">
              <mxPoint x="750" y="1730" />
              <mxPoint x="740" y="1590" />
            </Array>
          </mxGeometry>
        </mxCell>
        <mxCell id="7rRSaG8nYFPcw-TCQ7_x-63" value="" style="curved=1;endArrow=classic;html=1;rounded=0;exitX=1;exitY=0.5;exitDx=0;exitDy=0;" parent="1" source="7rRSaG8nYFPcw-TCQ7_x-18" edge="1">
          <mxGeometry width="50" height="50" relative="1" as="geometry">
            <mxPoint x="730" y="1800" as="sourcePoint" />
            <mxPoint x="680" y="1570" as="targetPoint" />
            <Array as="points">
              <mxPoint x="800" y="1810" />
              <mxPoint x="770" y="1630" />
            </Array>
          </mxGeometry>
        </mxCell>
        <mxCell id="7rRSaG8nYFPcw-TCQ7_x-64" value="" style="curved=1;endArrow=classic;html=1;rounded=0;exitX=1;exitY=0.5;exitDx=0;exitDy=0;entryX=1;entryY=0.5;entryDx=0;entryDy=0;" parent="1" source="7rRSaG8nYFPcw-TCQ7_x-18" target="7rRSaG8nYFPcw-TCQ7_x-17" edge="1">
          <mxGeometry width="50" height="50" relative="1" as="geometry">
            <mxPoint x="740" y="1800" as="sourcePoint" />
            <mxPoint x="790" y="1750" as="targetPoint" />
            <Array as="points">
              <mxPoint x="750" y="1870" />
              <mxPoint x="740" y="1770" />
            </Array>
          </mxGeometry>
        </mxCell>
        <mxCell id="7rRSaG8nYFPcw-TCQ7_x-65" value="" style="curved=1;endArrow=classic;html=1;rounded=0;exitX=1;exitY=0.5;exitDx=0;exitDy=0;entryX=1;entryY=0.5;entryDx=0;entryDy=0;" parent="1" source="7rRSaG8nYFPcw-TCQ7_x-13" target="7rRSaG8nYFPcw-TCQ7_x-15" edge="1">
          <mxGeometry width="50" height="50" relative="1" as="geometry">
            <mxPoint x="770" y="1580" as="sourcePoint" />
            <mxPoint x="820" y="1530" as="targetPoint" />
            <Array as="points">
              <mxPoint x="770" y="1390" />
              <mxPoint x="760" y="1540" />
            </Array>
          </mxGeometry>
        </mxCell>
        <mxCell id="7rRSaG8nYFPcw-TCQ7_x-66" value="Mutate git diff" style="rounded=0;whiteSpace=wrap;html=1;fillColor=#e1d5e7;strokeColor=#9673a6;" parent="1" vertex="1">
          <mxGeometry x="30" y="585" width="120" height="60" as="geometry" />
        </mxCell>
        <mxCell id="7rRSaG8nYFPcw-TCQ7_x-67" value="" style="endArrow=classic;html=1;rounded=0;exitX=1;exitY=0.5;exitDx=0;exitDy=0;entryX=0;entryY=0.5;entryDx=0;entryDy=0;" parent="1" source="7rRSaG8nYFPcw-TCQ7_x-66" target="7rRSaG8nYFPcw-TCQ7_x-15" edge="1">
          <mxGeometry width="50" height="50" relative="1" as="geometry">
            <mxPoint x="340" y="670" as="sourcePoint" />
            <mxPoint x="490" y="1050" as="targetPoint" />
          </mxGeometry>
        </mxCell>
        <mxCell id="7rRSaG8nYFPcw-TCQ7_x-68" value="" style="curved=1;endArrow=classic;html=1;rounded=0;exitX=1;exitY=0.5;exitDx=0;exitDy=0;entryX=1;entryY=0.5;entryDx=0;entryDy=0;" parent="1" source="7rRSaG8nYFPcw-TCQ7_x-4" target="7rRSaG8nYFPcw-TCQ7_x-19" edge="1">
          <mxGeometry width="50" height="50" relative="1" as="geometry">
            <mxPoint x="810" y="470" as="sourcePoint" />
            <mxPoint x="860" y="420" as="targetPoint" />
            <Array as="points">
              <mxPoint x="720" y="240" />
            </Array>
          </mxGeometry>
        </mxCell>
        <mxCell id="7rRSaG8nYFPcw-TCQ7_x-69" value="" style="curved=1;endArrow=classic;html=1;rounded=0;exitX=1;exitY=0.5;exitDx=0;exitDy=0;entryX=1;entryY=0.5;entryDx=0;entryDy=0;" parent="1" source="7rRSaG8nYFPcw-TCQ7_x-3" target="7rRSaG8nYFPcw-TCQ7_x-19" edge="1">
          <mxGeometry width="50" height="50" relative="1" as="geometry">
            <mxPoint x="740" y="440" as="sourcePoint" />
            <mxPoint x="790" y="390" as="targetPoint" />
            <Array as="points">
              <mxPoint x="740" y="340" />
              <mxPoint x="700" y="210" />
            </Array>
          </mxGeometry>
        </mxCell>
        <mxCell id="7rRSaG8nYFPcw-TCQ7_x-70" value="Detect redundant tests" style="rounded=0;whiteSpace=wrap;html=1;fillColor=#e1d5e7;strokeColor=#9673a6;" parent="1" vertex="1">
          <mxGeometry x="30" y="100" width="120" height="60" as="geometry" />
        </mxCell>
        <mxCell id="7rRSaG8nYFPcw-TCQ7_x-71" value="" style="endArrow=classic;html=1;rounded=0;exitX=1;exitY=0.5;exitDx=0;exitDy=0;entryX=0;entryY=0.5;entryDx=0;entryDy=0;" parent="1" source="7rRSaG8nYFPcw-TCQ7_x-70" target="7rRSaG8nYFPcw-TCQ7_x-20" edge="1">
          <mxGeometry width="50" height="50" relative="1" as="geometry">
            <mxPoint x="230" y="150" as="sourcePoint" />
            <mxPoint x="280" y="100" as="targetPoint" />
          </mxGeometry>
        </mxCell>
        <mxCell id="7rRSaG8nYFPcw-TCQ7_x-72" value="Timeout" style="rounded=0;whiteSpace=wrap;html=1;fillColor=#e1d5e7;strokeColor=#9673a6;" parent="1" vertex="1">
          <mxGeometry x="30" y="650" width="120" height="60" as="geometry" />
        </mxCell>
        <mxCell id="7rRSaG8nYFPcw-TCQ7_x-73" value="" style="endArrow=classic;html=1;rounded=0;exitX=1;exitY=0.5;exitDx=0;exitDy=0;entryX=0;entryY=0.5;entryDx=0;entryDy=0;" parent="1" source="7rRSaG8nYFPcw-TCQ7_x-72" target="7rRSaG8nYFPcw-TCQ7_x-13" edge="1">
          <mxGeometry width="50" height="50" relative="1" as="geometry">
            <mxPoint x="440" y="810" as="sourcePoint" />
            <mxPoint x="490" y="760" as="targetPoint" />
          </mxGeometry>
        </mxCell>
        <mxCell id="7rRSaG8nYFPcw-TCQ7_x-74" value="Stop after X iterations" style="rounded=0;whiteSpace=wrap;html=1;fillColor=#e1d5e7;strokeColor=#9673a6;" parent="1" vertex="1">
          <mxGeometry x="30" y="30" width="120" height="60" as="geometry" />
        </mxCell>
        <mxCell id="7rRSaG8nYFPcw-TCQ7_x-75" value="" style="endArrow=classic;html=1;rounded=0;exitX=1;exitY=0.5;exitDx=0;exitDy=0;entryX=0;entryY=0.5;entryDx=0;entryDy=0;" parent="1" source="7rRSaG8nYFPcw-TCQ7_x-74" target="7rRSaG8nYFPcw-TCQ7_x-13" edge="1">
          <mxGeometry width="50" height="50" relative="1" as="geometry">
            <mxPoint x="330" y="140" as="sourcePoint" />
            <mxPoint x="530" y="1090" as="targetPoint" />
          </mxGeometry>
        </mxCell>
        <mxCell id="7rRSaG8nYFPcw-TCQ7_x-76" value="Select code to mutate" style="rounded=0;whiteSpace=wrap;html=1;fillColor=#e1d5e7;strokeColor=#9673a6;" parent="1" vertex="1">
          <mxGeometry x="30" y="720" width="120" height="60" as="geometry" />
        </mxCell>
        <mxCell id="7rRSaG8nYFPcw-TCQ7_x-77" value="Generate mutation test report" style="rounded=0;whiteSpace=wrap;html=1;fillColor=#e1d5e7;strokeColor=#9673a6;" parent="1" vertex="1">
          <mxGeometry x="30" y="790" width="120" height="60" as="geometry" />
        </mxCell>
        <mxCell id="7rRSaG8nYFPcw-TCQ7_x-78" value="" style="endArrow=classic;html=1;rounded=0;exitX=1;exitY=0.5;exitDx=0;exitDy=0;entryX=0;entryY=0.5;entryDx=0;entryDy=0;" parent="1" source="7rRSaG8nYFPcw-TCQ7_x-48" target="7rRSaG8nYFPcw-TCQ7_x-13" edge="1">
          <mxGeometry width="50" height="50" relative="1" as="geometry">
            <mxPoint x="370" y="500" as="sourcePoint" />
            <mxPoint x="480" y="1000" as="targetPoint" />
          </mxGeometry>
        </mxCell>
        <mxCell id="7rRSaG8nYFPcw-TCQ7_x-79" value="" style="endArrow=classic;html=1;rounded=0;exitX=1;exitY=0.5;exitDx=0;exitDy=0;entryX=0;entryY=0.5;entryDx=0;entryDy=0;" parent="1" source="7rRSaG8nYFPcw-TCQ7_x-50" target="7rRSaG8nYFPcw-TCQ7_x-13" edge="1">
          <mxGeometry width="50" height="50" relative="1" as="geometry">
            <mxPoint x="400" y="510" as="sourcePoint" />
            <mxPoint x="510" y="930" as="targetPoint" />
          </mxGeometry>
        </mxCell>
        <mxCell id="7rRSaG8nYFPcw-TCQ7_x-80" value="" style="endArrow=classic;html=1;rounded=0;exitX=1;exitY=0.5;exitDx=0;exitDy=0;entryX=0;entryY=0.5;entryDx=0;entryDy=0;" parent="1" source="7rRSaG8nYFPcw-TCQ7_x-66" target="7rRSaG8nYFPcw-TCQ7_x-13" edge="1">
          <mxGeometry width="50" height="50" relative="1" as="geometry">
            <mxPoint x="390" y="550" as="sourcePoint" />
            <mxPoint x="510" y="1020" as="targetPoint" />
          </mxGeometry>
        </mxCell>
        <mxCell id="7rRSaG8nYFPcw-TCQ7_x-81" value="" style="endArrow=classic;html=1;rounded=0;exitX=0.992;exitY=0.4;exitDx=0;exitDy=0;exitPerimeter=0;entryX=0;entryY=0.5;entryDx=0;entryDy=0;" parent="1" source="7rRSaG8nYFPcw-TCQ7_x-76" target="7rRSaG8nYFPcw-TCQ7_x-12" edge="1">
          <mxGeometry width="50" height="50" relative="1" as="geometry">
            <mxPoint x="140" y="1010" as="sourcePoint" />
            <mxPoint x="470" y="1600" as="targetPoint" />
          </mxGeometry>
        </mxCell>
        <mxCell id="7rRSaG8nYFPcw-TCQ7_x-82" value="" style="curved=1;endArrow=classic;html=1;rounded=0;exitX=1;exitY=0.5;exitDx=0;exitDy=0;" parent="1" source="7rRSaG8nYFPcw-TCQ7_x-9" target="7rRSaG8nYFPcw-TCQ7_x-7" edge="1">
          <mxGeometry width="50" height="50" relative="1" as="geometry">
            <mxPoint x="740" y="950" as="sourcePoint" />
            <mxPoint x="790" y="900" as="targetPoint" />
            <Array as="points">
              <mxPoint x="750" y="920" />
              <mxPoint x="750" y="810" />
            </Array>
          </mxGeometry>
        </mxCell>
        <mxCell id="7rRSaG8nYFPcw-TCQ7_x-83" value="" style="curved=1;endArrow=classic;html=1;rounded=0;exitX=0.983;exitY=0.65;exitDx=0;exitDy=0;exitPerimeter=0;entryX=1;entryY=0.5;entryDx=0;entryDy=0;" parent="1" source="7rRSaG8nYFPcw-TCQ7_x-9" target="7rRSaG8nYFPcw-TCQ7_x-13" edge="1">
          <mxGeometry width="50" height="50" relative="1" as="geometry">
            <mxPoint x="720" y="1130" as="sourcePoint" />
            <mxPoint x="770" y="1080" as="targetPoint" />
            <Array as="points">
              <mxPoint x="740" y="1020" />
              <mxPoint x="750" y="1210" />
            </Array>
          </mxGeometry>
        </mxCell>
        <mxCell id="7rRSaG8nYFPcw-TCQ7_x-84" value="" style="curved=1;endArrow=classic;html=1;rounded=0;exitX=1;exitY=0.5;exitDx=0;exitDy=0;entryX=1;entryY=0.5;entryDx=0;entryDy=0;" parent="1" source="7rRSaG8nYFPcw-TCQ7_x-17" target="7rRSaG8nYFPcw-TCQ7_x-13" edge="1">
          <mxGeometry width="50" height="50" relative="1" as="geometry">
            <mxPoint x="780" y="1680" as="sourcePoint" />
            <mxPoint x="830" y="1630" as="targetPoint" />
            <Array as="points">
              <mxPoint x="810" y="1660" />
              <mxPoint x="790" y="1470" />
            </Array>
          </mxGeometry>
        </mxCell>
        <mxCell id="7rRSaG8nYFPcw-TCQ7_x-85" value="" style="curved=1;endArrow=classic;html=1;rounded=0;exitX=1;exitY=0.5;exitDx=0;exitDy=0;entryX=1;entryY=0.5;entryDx=0;entryDy=0;" parent="1" source="7rRSaG8nYFPcw-TCQ7_x-14" target="7rRSaG8nYFPcw-TCQ7_x-13" edge="1">
          <mxGeometry width="50" height="50" relative="1" as="geometry">
            <mxPoint x="760" y="1520" as="sourcePoint" />
            <mxPoint x="810" y="1470" as="targetPoint" />
            <Array as="points">
              <mxPoint x="750" y="1470" />
              <mxPoint x="770" y="1380" />
            </Array>
          </mxGeometry>
        </mxCell>
        <mxCell id="7rRSaG8nYFPcw-TCQ7_x-86" value="" style="curved=1;endArrow=classic;html=1;rounded=0;exitX=1;exitY=0.5;exitDx=0;exitDy=0;entryX=1;entryY=0.5;entryDx=0;entryDy=0;" parent="1" source="7rRSaG8nYFPcw-TCQ7_x-13" target="7rRSaG8nYFPcw-TCQ7_x-12" edge="1">
          <mxGeometry width="50" height="50" relative="1" as="geometry">
            <mxPoint x="730" y="1340" as="sourcePoint" />
            <mxPoint x="780" y="1290" as="targetPoint" />
            <Array as="points">
              <mxPoint x="750" y="1340" />
              <mxPoint x="720" y="1290" />
            </Array>
          </mxGeometry>
        </mxCell>
        <mxCell id="7rRSaG8nYFPcw-TCQ7_x-87" value="" style="curved=1;endArrow=classic;html=1;rounded=0;exitX=1;exitY=0.5;exitDx=0;exitDy=0;entryX=1;entryY=0.5;entryDx=0;entryDy=0;" parent="1" source="7rRSaG8nYFPcw-TCQ7_x-9" target="7rRSaG8nYFPcw-TCQ7_x-8" edge="1">
          <mxGeometry width="50" height="50" relative="1" as="geometry">
            <mxPoint x="730" y="960" as="sourcePoint" />
            <mxPoint x="780" y="910" as="targetPoint" />
            <Array as="points">
              <mxPoint x="740" y="960" />
              <mxPoint x="720" y="890" />
            </Array>
          </mxGeometry>
        </mxCell>
        <mxCell id="7rRSaG8nYFPcw-TCQ7_x-88" value="" style="endArrow=classic;html=1;rounded=0;entryX=0;entryY=0.5;entryDx=0;entryDy=0;exitX=1;exitY=0.5;exitDx=0;exitDy=0;" parent="1" source="7rRSaG8nYFPcw-TCQ7_x-34" target="7rRSaG8nYFPcw-TCQ7_x-12" edge="1">
          <mxGeometry width="50" height="50" relative="1" as="geometry">
            <mxPoint x="310" y="1650" as="sourcePoint" />
            <mxPoint x="360" y="1600" as="targetPoint" />
          </mxGeometry>
        </mxCell>
        <mxCell id="7rRSaG8nYFPcw-TCQ7_x-89" value="" style="endArrow=classic;html=1;rounded=0;entryX=0;entryY=0.5;entryDx=0;entryDy=0;exitX=1;exitY=0.5;exitDx=0;exitDy=0;" parent="1" source="7rRSaG8nYFPcw-TCQ7_x-29" target="7rRSaG8nYFPcw-TCQ7_x-13" edge="1">
          <mxGeometry width="50" height="50" relative="1" as="geometry">
            <mxPoint x="380" y="1660" as="sourcePoint" />
            <mxPoint x="430" y="1610" as="targetPoint" />
          </mxGeometry>
        </mxCell>
        <mxCell id="7rRSaG8nYFPcw-TCQ7_x-90" value="" style="endArrow=classic;html=1;rounded=0;exitX=1;exitY=0.5;exitDx=0;exitDy=0;entryX=0;entryY=0.5;entryDx=0;entryDy=0;" parent="1" source="7rRSaG8nYFPcw-TCQ7_x-30" target="7rRSaG8nYFPcw-TCQ7_x-15" edge="1">
          <mxGeometry width="50" height="50" relative="1" as="geometry">
            <mxPoint x="380" y="1720" as="sourcePoint" />
            <mxPoint x="430" y="1670" as="targetPoint" />
          </mxGeometry>
        </mxCell>
        <mxCell id="7rRSaG8nYFPcw-TCQ7_x-91" value="" style="endArrow=classic;html=1;rounded=0;entryX=0;entryY=0.5;entryDx=0;entryDy=0;exitX=1;exitY=0.5;exitDx=0;exitDy=0;" parent="1" source="7rRSaG8nYFPcw-TCQ7_x-30" target="7rRSaG8nYFPcw-TCQ7_x-13" edge="1">
          <mxGeometry width="50" height="50" relative="1" as="geometry">
            <mxPoint x="300" y="1770" as="sourcePoint" />
            <mxPoint x="350" y="1720" as="targetPoint" />
          </mxGeometry>
        </mxCell>
        <mxCell id="7rRSaG8nYFPcw-TCQ7_x-92" value="" style="endArrow=classic;html=1;rounded=0;entryX=0;entryY=0.5;entryDx=0;entryDy=0;exitX=1;exitY=0.5;exitDx=0;exitDy=0;" parent="1" source="7rRSaG8nYFPcw-TCQ7_x-32" target="7rRSaG8nYFPcw-TCQ7_x-13" edge="1">
          <mxGeometry width="50" height="50" relative="1" as="geometry">
            <mxPoint x="280" y="1760" as="sourcePoint" />
            <mxPoint x="330" y="1710" as="targetPoint" />
          </mxGeometry>
        </mxCell>
      </root>
    </mxGraphModel>
  </diagram>
</mxfile>
